<mxfile host="app.diagrams.net" modified="2023-09-22T06:24:49.668Z" agent="Mozilla/5.0 (Windows NT 10.0; Win64; x64) AppleWebKit/537.36 (KHTML, like Gecko) Chrome/117.0.0.0 Safari/537.36" version="21.6.8" etag="KEvWnqVd_58p8ftJ7JCn" type="github">
  <diagram name="Page-1" id="hFRpGZq-Fs9cCFhVOnp6">
    <mxGraphModel>
      <root>
        <mxCell id="0" />
        <mxCell id="1" parent="0" />
      </root>
    </mxGraphModel>
  </diagram>
</mxfile>
